{"accessors" : [{"bufferView" : 0, "byteOffset" : 0, "componentType" : 5123, "count" : 18, "type" : "SCALAR", "max" : [16], "min" : [0]}, {"bufferView" : 1, "byteOffset" : 0, "componentType" : 5126, "count" : 17, "type" : "VEC3", "max" : [0.03999999910593033, 0.10000000149011612, 0.03999999910593033], "min" : [-0.03999999910593033, -0.10000000149011612, -0.03999999910593033], "name" : "POSITION"}, {"bufferView" : 1, "byteOffset" : 12, "componentType" : 5126, "count" : 17, "type" : "VEC3", "max" : [0.7001431584358215, 1.0000044107437134, 0.7001431584358215], "min" : [-0.7001431584358215, -0.14002862572669983, -0.7001431584358215], "name" : "NORMAL"}], "asset" : {"generator" : "Aspose.3D 22.10", "version" : "2.0"}, "buffers" : [{"uri" : "data:application/octet-stream;base64,", "byteLength" : 476}], "bufferViews" : [{"buffer" : 0, "byteOffset" : 0, "byteLength" : 36, "target" : 34963}, {"buffer" : 0, "byteOffset" : 40, "byteLength" : 432, "byteStride" : 24, "target" : 34962}], "materials" : [{"name" : "Material.001", "pbrMetallicRoughness" : {"baseColorFactor" : [0.9999988079071045, 0.9999989867210388, 1, 1], "metallicFactor" : 0, "roughnessFactor" : 0.5}, "emissiveFactor" : [0, 0, 0], "alphaMode" : "OPAQUE", "doubleSided" : true}], "meshes" : [{"primitives" : [{"attributes" : {"POSITION" : 1, "NORMAL" : 2}, "indices" : 0, "material" : 0, "mode" : 4}]}], "nodes" : [{"mesh" : 0, "name" : "Cone"}], "scene" : 0, "scenes" : [{"nodes" : [0]}]}