{"asset":{"generator":"Khronos glTF Spline I/O v0.0.1","version":"2.0"},"scenes":[{"nodes":[0]}],"nodes":[{"name":"","children":[1,2,3]},{"name":"object_ovni","matrix":[0.40808917272945633,0,0,0,0,0.3793458000852483,0,0,0,0,0.35434985620470577,0,34.902964969190464,81.99274681804256,-494.2652424291204,0.9999999999999996],"children":[4,5,6,7,8,9]},{"name":"Directional Light","translation":[200,300,300],"rotation":[-0.4062840720729887,0.12301291902225084,-0.2623788760260691,0.8665785595944042],"extensions":{"KHR_lights_punctual":{"light":0}}},{"name":"Personal Camera","camera":0,"translation":[53.054157090859356,29.07790964906257,1000],"rotation":[-3.019806626980426e-17,0,0,1]},{"name":"littleglasses","matrix":[0.5302330781854644,0,0,0,0,-0.0034633803477754645,0.5302217669981112,0,0,-0.5302217669981112,-0.0034633803477754645,0,-0.1207970263435385,-89.8552202044514,-2.0036813725247242,1],"mesh":0},{"name":"ringbottom","matrix":[1.034278774951088,0,0,0,0,-0.006755709763605619,1.0342567112182128,0,0,-1.0342567112182128,-0.006755709763605619,0,3.495741072124389,-121.20776320012473,-0.15216990660366037,1],"mesh":1},{"name":"glass","matrix":[1.1744443697692064,0,0,0,0,1.1744193159563678,0.00767124443411761,0,0,-0.00767124443411761,1.1744193159563678,0,0.6890291107308286,9.467459509216013,-4.74828772181624,1],"mesh":2},{"name":"ringtop","matrix":[1.1433331737020545,0,0,0,0,0.007468032093188381,-1.143308783568231,0,0,1.143308783568231,0.007468032093188381,0,1.0000000000000853,12.532097218170918,-3.4745770014093864,1],"mesh":3},{"name":"light","matrix":[3.445944437359894,0,0,0,0,3.445944437359894,0,0,0,0,3.445944437359894,0,2.3614935721605192,-258.0603699112331,5.946350414203309,1],"mesh":4},{"name":"saucer","matrix":[1,0,0,0,0,0.999999457292992,0.0010418319054023469,0,0,-0.0010418319054023469,0.999999457292992,0,0,0.779186004442721,0.0558085428386903,1],"mesh":5}],"cameras":[{"type":"orthographic","orthographic":{"xmag":1371,"ymag":776,"zfar":100000,"znear":-100000}}],"meshes":[{"primitives":[{"attributes":{"POSITION":1,"NORMAL":2,"TEXCOORD_0":3},"indices":0}]},{"primitives":[{"attributes":{"POSITION":5,"NORMAL":6,"TEXCOORD_0":7},"indices":4}]},{"primitives":[{"attributes":{"POSITION":9,"NORMAL":10,"TEXCOORD_0":11},"indices":8}]},{"primitives":[{"attributes":{"POSITION":13,"NORMAL":14,"TEXCOORD_0":15},"indices":12}]},{"primitives":[{"attributes":{"POSITION":17,"NORMAL":18,"TEXCOORD_0":19},"indices":16}]},{"primitives":[{"attributes":{"POSITION":21,"NORMAL":22},"indices":20}]}],"buffers":[{"uri":"data:application/octet-stream;base64,","byteLength":183584},{"uri":"data:application/octet-stream;base64,","byteLength":95328},{"uri":"data:application/octet-stream;base64,","byteLength":183968},{"uri":"data:application/octet-stream;base64,","byteLength":95328},{"uri":"data:application/octet-stream;base64,","byteLength":78624},{"uri":"data:application/octet-stream;base64,","byteLength":261120}],"bufferViews":[{"buffer":0,"byteOffset":0,"byteLength":48384,"target":34963},{"buffer":0,"byteOffset":48384,"byteLength":50700,"target":34962},{"buffer":0,"byteOffset":99084,"byteLength":50700,"target":34962},{"buffer":0,"byteOffset":149784,"byteLength":33800,"target":34962},{"buffer":1,"byteOffset":0,"byteLength":24576,"target":34963},{"buffer":1,"byteOffset":24576,"byteLength":26532,"target":34962},{"buffer":1,"byteOffset":51108,"byteLength":26532,"target":34962},{"buffer":1,"byteOffset":77640,"byteLength":17688,"target":34962},{"buffer":2,"byteOffset":0,"byteLength":48768,"target":34963},{"buffer":2,"byteOffset":48768,"byteLength":50700,"target":34962},{"buffer":2,"byteOffset":99468,"byteLength":50700,"target":34962},{"buffer":2,"byteOffset":150168,"byteLength":33800,"target":34962},{"buffer":3,"byteOffset":0,"byteLength":24576,"target":34963},{"buffer":3,"byteOffset":24576,"byteLength":26532,"target":34962},{"buffer":3,"byteOffset":51108,"byteLength":26532,"target":34962},{"buffer":3,"byteOffset":77640,"byteLength":17688,"target":34962},{"buffer":4,"byteOffset":0,"byteLength":20544,"target":34963},{"buffer":4,"byteOffset":20544,"byteLength":21780,"target":34962},{"buffer":4,"byteOffset":42324,"byteLength":21780,"target":34962},{"buffer":4,"byteOffset":64104,"byteLength":14520,"target":34962},{"buffer":5,"byteOffset":0,"byteLength":52224,"target":34963},{"buffer":5,"byteOffset":52224,"byteLength":104448,"target":34962},{"buffer":5,"byteOffset":156672,"byteLength":104448,"target":34962}],"accessors":[{"bufferView":0,"byteOffset":0,"componentType":5123,"count":24192,"type":"SCALAR","min":[0],"max":[4224]},{"bufferView":1,"byteOffset":0,"componentType":5126,"count":4225,"type":"VEC3","min":[-33,-33,-33],"max":[33,33,33]},{"bufferView":2,"byteOffset":0,"componentType":5126,"count":4225,"type":"VEC3","min":[-1,-1,-1],"max":[1,1,1]},{"bufferView":3,"byteOffset":0,"componentType":5126,"count":4225,"type":"VEC2","min":[-0.0078125,0],"max":[1.0078125,1]},{"bufferView":4,"byteOffset":0,"componentType":5123,"count":12288,"type":"SCALAR","min":[33],"max":[2144]},{"bufferView":5,"byteOffset":0,"componentType":5126,"count":2211,"type":"VEC3","min":[-109,-109,-8.250499725341797],"max":[109,109,8.250499725341797]},{"bufferView":6,"byteOffset":0,"componentType":5126,"count":2211,"type":"VEC3","min":[-1,-1,-1],"max":[1,1,1]},{"bufferView":7,"byteOffset":0,"componentType":5126,"count":2211,"type":"VEC2","min":[0,0],"max":[0.987293541431427,1]},{"bufferView":8,"byteOffset":0,"componentType":5123,"count":24384,"type":"SCALAR","min":[0],"max":[4224]},{"bufferView":9,"byteOffset":0,"componentType":5126,"count":4225,"type":"VEC3","min":[-67.9896469116211,1.1867636442184448,-67.9896469116211],"max":[67.9896469116211,68,67.9896469116211]},{"bufferView":10,"byteOffset":0,"componentType":5126,"count":4225,"type":"VEC3","min":[-0.9998477101325989,0.017452405765652657,-0.9998477101325989],"max":[0.9998477101325989,1,0.9998477101325989]},{"bufferView":11,"byteOffset":0,"componentType":5126,"count":4225,"type":"VEC2","min":[0,0],"max":[1.0078125,1]},{"bufferView":12,"byteOffset":0,"componentType":5123,"count":12288,"type":"SCALAR","min":[33],"max":[2144]},{"bufferView":13,"byteOffset":0,"componentType":5126,"count":2211,"type":"VEC3","min":[-76.5,-77.5,-7.125500202178955],"max":[76.5,77.5,7.125500202178955]},{"bufferView":14,"byteOffset":0,"componentType":5126,"count":2211,"type":"VEC3","min":[-1,-1,-1],"max":[1,1,1]},{"bufferView":15,"byteOffset":0,"componentType":5126,"count":2211,"type":"VEC2","min":[0,0],"max":[0.9841656684875488,1]},{"bufferView":16,"byteOffset":0,"componentType":5123,"count":10272,"type":"SCALAR","min":[0],"max":[1813]},{"bufferView":17,"byteOffset":0,"componentType":5126,"count":1815,"type":"VEC3","min":[-40.1112060546875,-65.52534484863281,-40.1112060546875],"max":[40.1112060546875,65.52534484863281,40.1112060546875]},{"bufferView":18,"byteOffset":0,"componentType":5126,"count":1815,"type":"VEC3","min":[-0.9956471920013428,-1,-0.9956471920013428],"max":[0.9956471920013428,1,0.9956471920013428]},{"bufferView":19,"byteOffset":0,"componentType":5126,"count":1815,"type":"VEC2","min":[0,0],"max":[1,1]},{"bufferView":20,"byteOffset":0,"componentType":5125,"count":13056,"type":"SCALAR","min":[0],"max":[8703]},{"bufferView":21,"byteOffset":0,"componentType":5126,"count":8704,"type":"VEC3","min":[-268.4584045410156,-120.06770324707031,-268.4584045410156],"max":[268.4584045410156,12.932295799255371,268.4584045410156]},{"bufferView":22,"byteOffset":0,"componentType":5126,"count":8704,"type":"VEC3","min":[-1,-1,-1],"max":[1,1,1]}],"extensions":{"KHR_lights_punctual":{"lights":[{"type":"directional","name":"Directional Light","color":[1,1,1],"intensity":0.7}]}},"extensionsUsed":["KHR_lights_punctual"]}